<?xml version="1.0" encoding="UTF-8" standalone="no"?>
<!DOCTYPE svg PUBLIC "-//W3C//DTD SVG 1.1//EN"
 "http://www.w3.org/Graphics/SVG/1.1/DTD/svg11.dtd">
<!-- Generated by graphviz version 12.2.0 (20241103.1931)
 -->
<!-- Title: fsm Pages: 1 -->
<svg width="226pt" height="221pt"
 viewBox="0.00 0.00 225.63 221.00" xmlns="http://www.w3.org/2000/svg" xmlns:xlink="http://www.w3.org/1999/xlink">
<g id="graph0" class="graph" transform="scale(1 1) rotate(0) translate(4 217)">
<title>fsm</title>
<polygon fill="white" stroke="none" points="-4,4 -4,-217 221.63,-217 221.63,4 -4,4"/>
<!-- Admin -->
<g id="node1" class="node">
<title>Admin</title>
<ellipse fill="none" stroke="black" cx="130.31" cy="-106.5" rx="37.02" ry="18"/>
<text text-anchor="middle" x="130.31" y="-101.45" font-family="Times,serif" font-size="14.00">Admin</text>
</g>
<!-- Admin: CLOSE -->
<g id="node2" class="node">
<title>Admin: CLOSE</title>
<ellipse fill="none" stroke="black" cx="71.31" cy="-18" rx="71.31" ry="18"/>
<text text-anchor="middle" x="71.31" y="-12.95" font-family="Times,serif" font-size="14.00">Admin: CLOSE</text>
</g>
<!-- Admin&#45;&gt;Admin: CLOSE -->
<g id="edge1" class="edge">
<title>Admin&#45;&gt;Admin: CLOSE</title>
<path fill="none" stroke="black" d="M119.21,-89.23C110.81,-76.9 99.08,-59.71 89.33,-45.42"/>
<polygon fill="black" stroke="black" points="92.34,-43.62 83.82,-37.34 86.56,-47.57 92.34,-43.62"/>
<text text-anchor="middle" x="119.97" y="-57.2" font-family="Times,serif" font-size="14.00">close</text>
</g>
<!-- kaka -->
<g id="node3" class="node">
<title>kaka</title>
<ellipse fill="none" stroke="black" cx="189.31" cy="-18" rx="28.32" ry="18"/>
<text text-anchor="middle" x="189.31" y="-12.95" font-family="Times,serif" font-size="14.00">kaka</text>
</g>
<!-- Admin&#45;&gt;kaka -->
<g id="edge2" class="edge">
<title>Admin&#45;&gt;kaka</title>
<path fill="none" stroke="black" d="M141.41,-89.23C150.03,-76.59 162.15,-58.82 172.04,-44.32"/>
<polygon fill="black" stroke="black" points="174.87,-46.39 177.61,-36.16 169.08,-42.44 174.87,-46.39"/>
<text text-anchor="middle" x="185.35" y="-57.2" font-family="Times,serif" font-size="14.00">process</text>
</g>
<!-- root -->
<g id="node4" class="node">
<title>root</title>
<ellipse fill="none" stroke="red" cx="130.31" cy="-195" rx="27" ry="18"/>
<text text-anchor="middle" x="130.31" y="-189.95" font-family="Times,serif" font-size="14.00">root</text>
</g>
<!-- root&#45;&gt;Admin -->
<g id="edge3" class="edge">
<title>root&#45;&gt;Admin</title>
<path fill="none" stroke="black" d="M130.31,-176.91C130.31,-165.26 130.31,-149.55 130.31,-136.02"/>
<polygon fill="black" stroke="black" points="133.81,-136.36 130.31,-126.36 126.81,-136.36 133.81,-136.36"/>
<text text-anchor="middle" x="143.44" y="-145.7" font-family="Times,serif" font-size="14.00">open</text>
</g>
</g>
</svg>
